<?xml version='1.0' encoding='utf-8'?>
<svg xmlns="http://www.w3.org/2000/svg" width="8.5in" height="11in" version="1.1" style="shape-rendering:geometricPrecision; text-rendering:geometricPrecision; image-rendering:optimizeQuality; fill-rule:evenodd; clip-rule:evenodd" viewBox="0 0 8500 11000"> <defs> <style type="text/css">  .fil0 {fill:black}  </style> </defs> <g id="Layer_x0020_1"> <metadata id="CorelCorpID_0Corel-Layer"/> <g id="_965469552"> <path class="fil0" d="M1997 7405c29,82 318,269 380,295 174,75 339,134 522,34 400,-218 313,-426 578,-727 -37,-24 -390,-23 -460,-11 -149,25 -241,61 -354,119 -96,49 -238,107 -313,163 -148,110 -313,102 -353,126z"/> <path class="fil0" d="M5777 7798c-19,-20 -59,-36 -90,-58l-200 -217c-36,-65 -65,-120 -105,-173 -97,-128 -76,-176 -226,-341 -131,-144 -397,-271 -551,-58 -46,63 -71,126 -63,223 3,31 59,185 72,203 116,170 203,240 378,329 39,20 56,20 95,42 171,94 532,118 690,50z"/> <path class="fil0" d="M2954 7834c94,51 392,27 501,3 81,-17 140,-46 217,-71 181,-61 382,-199 475,-369 159,-289 38,-523 -176,-522 -225,1 -385,192 -505,339l-163 266c-57,78 -114,177 -188,240 -23,19 -56,45 -81,58 -34,18 -64,23 -81,55z"/> <path class="fil0" d="M5269 6966c15,33 53,60 80,94 65,80 170,496 515,643 269,114 528,-1 721,-176 70,-64 147,-121 163,-167 -281,-4 -444,-164 -671,-274 -122,-59 -191,-91 -348,-112l-460 -7z"/> <path class="fil0" d="M5799 5990c-16,-30 -212,-178 -273,-231 -104,-91 -207,-141 -378,-117 -166,23 -257,77 -350,158 -30,26 -78,99 -104,151 -73,146 -67,416 43,492 140,97 336,106 448,-49 131,-180 308,-355 615,-404z"/> <path class="fil0" d="M3015 6028c41,30 137,40 186,63 137,65 195,108 302,209 44,41 73,84 114,129 101,109 218,150 365,96 278,-102 275,-767 -312,-847 -122,-17 -217,13 -308,78l-347 273z"/> <path class="fil0" d="M6299 3457c-16,161 51,380 162,419 187,68 348,-3 479,-71 112,-58 316,-250 601,-269 168,-11 220,34 263,34 -7,-61 -67,-95 -111,-126 -50,-36 -94,-77 -156,-99 -240,-87 -605,-107 -848,3 -174,79 -333,87 -390,109z"/> <path class="fil0" d="M1062 3586c361,-23 290,-43 616,147 63,37 108,61 171,95 135,73 248,114 419,93 158,-19 238,-106 270,-261 60,-286 -107,-169 -277,-232 -146,-55 -234,-106 -412,-117 -190,-11 -474,47 -638,156 -62,41 -123,61 -149,119z"/> <path class="fil0" d="M3704 6618c-22,-24 -115,-100 -143,-123 -173,-138 -215,-230 -464,-324 -209,-78 -243,-47 -413,30 -135,61 -367,112 -389,125 52,34 94,48 150,91l141 102c106,70 130,149 295,192 216,57 720,10 823,-93z"/> <path class="fil0" d="M5089 6583c30,52 315,92 389,102 335,49 503,-12 736,-211 202,-172 171,-120 287,-198 -246,-35 -471,-187 -595,-194 -307,-19 -519,279 -676,394l-141 108z"/> <path class="fil0" d="M7300 2925c-19,-25 -117,-75 -178,-114 -45,-29 -39,-39 -72,-67 -33,-28 -51,-26 -87,-64 -35,-37 -83,-123 -107,-182 -47,-115 -182,-235 -280,-299 -50,-33 -144,-77 -179,-111 -146,-141 -17,-348 -95,-480 -15,87 -18,205 -27,297 -27,265 32,585 167,787 62,93 225,248 348,301 145,62 418,34 510,-67z"/> <path class="fil0" d="M1486 2955c11,151 349,117 476,69 354,-134 491,-372 567,-728 21,-96 9,-197 -2,-293 -12,-101 -5,-349 -9,-374l-18 -37c-93,105 32,391 -85,507 -134,132 -328,276 -449,431 -23,29 -41,51 -65,86 -26,38 -34,48 -64,87 -95,125 -156,189 -350,252z"/> <path class="fil0" d="M3227 4288c24,87 97,160 138,225 32,50 39,56 76,98l312 418c106,166 100,79 186,-19 34,-39 67,-78 101,-118 60,-68 141,-162 192,-236 30,-43 19,-736 -7,-791 -50,15 3,-3 -73,73 -202,199 -200,259 -254,545 -14,74 -93,509 -231,340 -101,-125 -39,-107 -67,-256 -18,-97 -262,-263 -374,-281z"/> <path class="fil0" d="M1830 3987c-167,37 -336,125 -510,82 -62,-15 -119,-67 -131,13 -35,238 200,362 406,395 125,20 384,11 526,-65 235,-126 152,-523 -291,-424z"/> <path class="fil0" d="M3057 3087c402,159 195,312 551,732 21,25 37,46 59,69 21,23 39,36 62,65 169,206 -11,318 89,453 54,-66 97,-393 100,-510 9,-312 -128,-690 -404,-806 -88,-37 -417,-149 -457,-5z"/> <path class="fil0" d="M4996 5116c9,-14 19,-36 30,-49 25,-33 21,-13 43,-50 46,-77 179,-231 235,-320 46,-74 292,-365 296,-422 -35,0 -168,99 -231,139 -63,40 -57,25 -81,46 -45,37 -34,153 -48,220 -43,206 -179,230 -263,55 -100,-207 -51,-109 -106,-356 -22,-97 -16,-243 -73,-297 -66,-63 -116,-149 -188,-194 -45,62 -63,707 -21,773 26,42 53,76 86,123 31,44 70,79 103,117 43,50 171,200 220,216z"/> <path class="fil0" d="M3635 1363c39,-22 96,-112 125,-143 216,-225 374,-192 607,-191 -69,-383 -938,-538 -976,19 -20,292 70,257 145,274 57,13 54,26 99,41z"/> <path class="fil0" d="M7600 4014c-21,-13 26,-19 -28,-6 -5,1 -19,9 -32,15 -25,10 -49,15 -78,18 -243,29 -599,-198 -811,-26 -67,54 -107,170 -50,278 76,143 770,203 912,5 39,-55 135,-180 87,-284z"/> <path class="fil0" d="M2244 4430c75,49 138,27 199,102 39,48 91,116 183,122 95,6 175,-43 267,-35 95,8 144,74 124,182 -47,50 -53,22 -103,57 93,181 459,-181 60,-601 -105,-110 -421,-205 -608,4 -45,50 -106,110 -121,169z"/> <path class="fil0" d="M4976 4352l21 -39c2,-9 2,-57 1,-68 -2,-38 -7,-74 -9,-116 -4,-103 18,-142 76,-192 116,-100 162,-129 256,-266 63,-93 97,-255 152,-368 31,-64 68,-112 118,-149 51,-38 125,-66 161,-102 -97,-96 -328,-14 -429,44 -28,16 -58,33 -83,56 -30,28 -53,43 -81,70 -43,42 -89,103 -122,167 -130,253 -184,671 -63,963z"/> <path class="fil0" d="M2867 1998c46,158 164,62 213,208 12,35 20,77 16,111 -108,15 -194,6 -152,151 94,323 578,354 610,341 34,-33 53,-72 84,-101 42,-39 69,-34 118,-73 -15,-31 -269,-138 -362,-269 -32,-46 -48,-100 -76,-143 -48,-73 -87,-30 -181,-248 -63,-146 -240,-20 -271,24z"/> <path class="fil0" d="M5887 4851c-22,-34 12,-6 -51,-38 -128,-64 -44,-288 259,-211 120,30 189,8 254,-54 33,-32 43,-60 90,-85 44,-23 82,-21 116,-56 -26,-64 -212,-226 -280,-264 -62,-35 -144,-44 -225,-20 -184,55 -343,220 -391,431 -40,173 40,361 228,298z"/> <path class="fil0" d="M3927 2661c-35,213 149,489 503,351 91,-35 97,1 189,10 167,17 455,-76 504,-231 -145,26 -355,-21 -441,-114 -44,-48 -32,-83 -114,-47 -255,112 -461,48 -641,31z"/> <path class="fil0" d="M1386 2854c163,40 383,-180 448,-315 156,-321 70,-465 204,-595 58,-56 221,-207 231,-309 -40,20 -41,31 -76,58 -30,23 -60,34 -91,48l-90 39c-478,150 -265,460 -504,699 -31,31 -86,117 -106,160 -38,81 -42,132 -16,215z"/> <path class="fil0" d="M5202 4439l140 -109c49,-35 118,-56 177,-89 292,-165 107,-292 332,-710 51,-95 184,-245 80,-376 -107,-134 -279,83 -321,135 -73,91 -115,235 -124,399 -11,199 10,283 -70,448 -61,127 -189,192 -214,302z"/> <path class="fil0" d="M3604 4425c-23,-124 -148,-181 -203,-294 -155,-317 64,-348 -185,-811 -152,-282 -521,-191 -232,220 139,198 73,447 158,583 31,50 317,191 380,245 41,35 22,40 81,56z"/> <path class="fil0" d="M6537 1599c12,44 86,100 118,137 41,46 80,91 118,149 198,303 33,451 302,763 53,61 498,403 321,-44 -20,-52 -80,-129 -107,-159 -114,-128 -135,-160 -170,-365 -56,-324 -218,-288 -504,-432 -34,-17 -47,-35 -79,-49z"/> <path class="fil0" d="M4460 1091c111,-6 234,-73 392,119 72,87 47,92 102,93 -21,-77 -130,-93 -151,-242 -27,-197 178,-238 196,-171 18,65 17,106 66,166 18,22 112,84 153,103 118,55 313,-50 221,-222 -15,-28 -33,-47 -52,-75 -25,-37 -31,-39 -61,-67 -53,-49 -64,-76 -140,-116 -89,-47 -340,-58 -455,-40 -22,122 48,60 -98,249 -50,65 -169,136 -174,202z"/> <path class="fil0" d="M787 4413c90,4 197,-76 229,-134 43,-76 55,-197 99,-282 61,-116 152,-71 271,-50 92,16 254,6 309,-50 -28,-73 -486,-326 -706,-200 -53,30 -132,243 -160,326 -35,104 -102,294 -42,390z"/> <path class="fil0" d="M6799 7276c30,-93 52,-221 90,-313 43,-104 119,-222 131,-265 -85,17 -161,55 -244,83 -208,68 -805,146 -808,148 67,30 123,74 194,108 179,86 421,277 637,240z"/> <path class="fil0" d="M4266 3418c0,39 66,195 65,398 -1,258 37,663 31,926 -3,150 -2,349 6,498 8,155 -1,313 19,467 14,111 14,349 36,450 11,-34 16,-615 14,-697 -3,-106 13,-224 18,-336 5,-123 6,-247 6,-371 0,-112 -7,-247 1,-356 20,-270 -3,-599 57,-855 12,-50 35,-97 40,-137 -37,1 -185,48 -291,13z"/> <path class="fil0" d="M3933 5245c4,57 166,393 200,471l175 393c18,49 6,37 49,52l-69 -1377c-27,10 -122,177 -170,232 -16,19 -32,34 -49,57 -17,23 -24,40 -41,62 -16,21 -72,93 -95,110z"/> <path class="fil0" d="M2226 6891c-156,-27 -335,-111 -482,-144 1,63 33,85 61,135 71,123 137,402 145,411 121,72 374,-75 453,-122 30,-18 63,-39 96,-55 43,-20 52,-36 94,-57 55,-28 160,-70 194,-103 -185,-28 -379,-33 -561,-65z"/> <path class="fil0" d="M1299 6219c56,93 102,127 197,185 252,156 514,194 804,260 113,26 275,71 397,80 -34,-58 -78,-72 -121,-123 -36,-42 -30,-26 -70,-57 -58,-45 -135,-115 -207,-152 -179,-91 -379,-106 -588,-116 -176,-8 -303,-64 -412,-78z"/> <path class="fil0" d="M7133 3862c68,45 217,68 294,36 117,-49 195,-44 262,49 58,80 72,284 191,365 37,25 91,51 130,31 11,-251 -45,-592 -214,-688 -155,-88 -381,-4 -532,104 -47,34 -107,44 -130,104z"/> <path class="fil0" d="M4490 6124c59,-42 181,-355 205,-415 38,-95 175,-347 198,-423 -44,-70 -6,-30 -78,-125l-174 -242c-28,-36 -54,-94 -90,-127l-61 1332z"/> <path class="fil0" d="M6716 6581c187,-58 753,-259 762,-409 -110,40 -251,80 -388,94 -315,30 -489,2 -738,208l-193 166c-37,32 -42,19 -59,63l615 -122z"/> <path class="fil0" d="M4894 3079c-73,-2 -133,28 -204,32 -93,6 -160,-23 -220,-22 -53,1 -116,40 -197,45 -205,14 -377,-144 -423,-310 -20,-72 18,-186 -68,-136 -204,117 -78,341 58,460 51,44 252,129 334,151 139,37 294,7 421,-30 59,-17 273,-147 298,-191z"/> <path class="fil0" d="M2731 5518c-53,-16 -107,-31 -154,-53 -116,-54 -160,-213 -188,-334 -10,-44 6,-626 -347,-601 3,17 71,169 94,338 30,219 76,494 259,626 84,61 256,99 336,24z"/> <path class="fil0" d="M6899 7271c66,-14 423,-515 496,-612 40,-53 66,-111 100,-179 16,-32 29,-61 45,-93l115 -301c47,-102 152,-101 105,-150 -43,-45 -113,98 -134,132 -131,218 -56,141 -242,314 -224,209 -433,544 -486,889z"/> <path class="fil0" d="M6046 5462c30,115 237,79 311,20 55,-44 72,-48 117,-103 39,-47 62,-78 91,-139 105,-224 61,-215 100,-356 13,-47 22,-139 25,-188 7,-103 29,-106 48,-181 -234,3 -285,320 -296,504 -3,55 -30,109 -41,165 -49,243 -135,291 -353,279z"/> <path class="fil0" d="M1252 6278c-102,-137 -130,-331 -232,-292 -9,45 66,103 97,160 79,147 89,304 243,545 49,77 386,531 465,581 39,-78 -110,-390 -160,-480 -22,-39 -15,-47 -45,-83 -121,-142 -101,-135 -251,-282 -105,-103 -70,-88 -116,-150z"/> <path class="fil0" d="M2962 1848l149 -13c11,-115 -27,-195 25,-312 38,-86 100,-133 158,-187 3,-62 -21,-148 -47,-188 -85,-6 -163,34 -219,71 -86,57 -113,47 -155,157 -78,200 52,328 89,473z"/> <path class="fil0" d="M3752 8065c43,-56 142,-108 216,-143 32,-15 45,-27 74,-41 170,-80 196,-84 192,-266l-347 194c-109,51 -506,246 -354,381 84,74 576,144 664,121l-26 -77 -259 -35c-102,-13 -169,-23 -160,-134z"/> <path class="fil0" d="M5558 1039c64,-1 153,-58 296,51 156,119 167,363 70,544 -75,140 -137,164 -149,207 127,23 209,34 311,-149 69,-123 80,-254 43,-416 -50,-219 -196,-332 -409,-334 -70,-1 -158,21 -163,97z"/> <path class="fil0" d="M675 4474c20,181 146,322 349,287 114,-20 219,-102 298,-174 33,-31 67,-30 94,-63 -60,-59 -223,-158 -344,-117 -59,20 -119,45 -177,68 -106,42 -122,10 -221,0z"/> <path class="fil0" d="M4473 8309c9,-109 -21,-171 -25,-278 -4,-103 1,-210 3,-313 5,-408 108,-461 -105,-434 -14,38 -53,571 -55,655 -2,85 -29,254 -21,324 13,114 132,110 203,46z"/> <path class="fil0" d="M6761 5724c14,110 262,52 289,-113 11,-66 -2,-125 13,-197 28,-132 10,-412 -85,-540 -28,-37 -60,-81 -85,-124 -26,-46 -42,-116 -71,-143 -79,99 -48,180 -15,281 14,43 38,107 48,148l98 486c32,175 -65,204 -191,202z"/> <path class="fil0" d="M4597 8309c15,12 843,-8 592,-302 -58,-68 -230,-135 -325,-183 -88,-45 -163,-84 -239,-145 -43,-35 -22,-41 -79,-57l8 142c180,210 483,198 459,382 -184,142 -428,4 -429,127 0,47 9,29 13,35z"/> <path class="fil0" d="M7359 4476c30,27 59,28 98,60 32,25 57,41 94,68 64,47 115,98 221,101 97,3 197,-28 243,-78 18,-20 116,-162 121,-191 -71,-8 -118,25 -219,0 -74,-19 -126,-46 -194,-62 -137,-31 -296,31 -365,102z"/> <path class="fil0" d="M2025 5761c-108,12 -175,0 -169,-196 8,-278 69,-339 111,-611l29 -234c1,-56 3,-58 -15,-74l-169 244c-108,149 -111,638 -46,785 29,65 109,143 200,143 55,0 56,-10 59,-57z"/> <path class="fil0" d="M3160 5826c43,-14 79,-43 104,-76 -9,-285 90,-380 137,-614 19,-94 12,-261 -1,-357 -10,-70 -98,-205 -143,-228 -28,90 -25,159 8,240 10,24 20,52 24,80 41,281 -260,731 -129,956z"/> <path class="fil0" d="M2173 3257c21,36 67,52 127,75 71,28 201,37 223,28 77,-77 168,-177 204,-312 50,-185 -20,-296 -70,-417 -23,38 -34,445 -484,625z"/> <path class="fil0" d="M4881 6635c6,100 15,112 177,170 92,33 196,48 288,71 261,63 972,-61 1247,-128 108,-26 184,-41 283,-75 134,-45 220,-51 222,-121 -90,10 -349,119 -517,150 -517,97 -928,190 -1466,11 -40,-13 -207,-78 -235,-78z"/> <path class="fil0" d="M2782 1040c20,223 -253,276 -64,647 43,84 62,116 155,151 -43,-116 -211,-363 -39,-583 38,-48 47,-46 95,-91 36,-34 76,-54 129,-68 111,-31 250,-3 235,-140 -80,-69 -158,-61 -271,-34 -106,26 -166,68 -239,118z"/> <path class="fil0" d="M5564 5726c22,23 57,60 98,68 113,-223 -202,-578 -131,-949 11,-57 30,-97 28,-160 -2,-70 8,-118 4,-181 -59,84 -95,41 -150,233 -71,246 -2,419 86,644 50,128 51,197 64,345z"/> <path class="fil0" d="M3439 2894c-30,-61 7,-11 -135,-43 -174,-40 -207,-59 -329,-194 -83,-93 -168,-220 -79,-366 40,-67 48,-30 108,-61 -23,-58 -48,-53 -110,-82 -60,-28 -62,-60 -105,-107 -27,13 -3,-9 -29,20 -49,56 -107,193 -93,290 20,142 77,220 145,295 102,114 384,295 628,248z"/> <path class="fil0" d="M4616 2512c47,-19 101,-73 131,-107 43,-50 66,-91 101,-154 73,-134 92,-230 117,-401 28,-192 -60,-428 -165,-576 -38,-54 -68,-99 -130,-126 6,43 69,144 86,222 6,28 10,67 19,96 96,318 45,613 -83,916l-76 132z"/> <path class="fil0" d="M6252 3315c163,16 262,-15 380,-78 -40,-62 -154,-37 -302,-226 -235,-301 -113,-258 -180,-351 -69,57 -99,253 -69,368 18,67 134,244 171,288z"/> <path class="fil0" d="M1403 5363c11,-109 23,-174 68,-257 152,-285 453,-297 434,-546 -107,-26 -179,7 -258,73 -85,71 -114,87 -174,184 -43,69 -82,155 -107,250 -19,73 -20,260 38,297z"/> <path class="fil0" d="M7401 5318c104,-123 10,-413 -63,-526 -59,-91 -250,-287 -401,-277 -165,11 197,355 215,372 82,80 174,129 221,291 11,37 16,108 29,140z"/> <path class="fil0" d="M1666 6596c29,69 5,62 87,83l396 103c97,21 181,35 284,53 99,17 201,21 292,42 196,46 429,31 632,18 331,-21 333,-59 556,-120l6 -102c-88,21 -184,59 -274,85 -89,26 -177,47 -264,70 -138,37 -488,52 -626,20 -90,-21 -186,-40 -279,-54 -196,-29 -761,-201 -810,-197z"/> <path class="fil0" d="M5021 1350c39,53 265,180 157,259 -32,23 -37,14 -64,57 61,7 94,3 154,31 36,17 80,74 96,105 2,93 6,149 -34,211 -102,159 -194,107 -300,210 -36,35 -137,106 -114,104 6,5 -13,17 75,13 150,-7 347,-152 404,-259 51,-95 102,-181 71,-295 -26,-99 -97,-165 -193,-197 2,-122 14,-56 -40,-148 -32,-56 -124,-106 -185,-118l-28 27z"/> <path class="fil0" d="M722 4992c88,74 120,88 282,72 240,-23 310,-158 420,-341 61,-102 97,-116 199,-178 -131,-59 -585,342 -767,409 -42,15 -110,21 -135,37z"/> <path class="fil0" d="M4487 2536c68,-118 22,-196 -42,-282l-84 -116c-42,-94 -98,-150 -62,-332 14,-71 102,-213 167,-253 31,-19 97,-60 100,-92 -51,-31 -92,32 -121,62 -67,70 -144,135 -188,226 -36,73 -16,9 -45,94 -1,3 -2,6 -3,8 -9,26 -8,57 -12,102 -12,124 15,297 76,406 39,68 86,190 214,177z"/> <path class="fil0" d="M3906 2316c3,-33 -67,-149 -90,-246 -19,-83 -57,-146 -47,-304 4,-59 23,-156 21,-211 -120,90 -260,205 -219,431 25,139 46,146 116,228 33,39 145,144 219,103z"/> <path class="fil0" d="M2290 6043c202,-446 -150,-568 -232,-952 -11,-49 -1,-46 -27,-74 -62,284 -115,308 59,522 248,306 150,400 201,504z"/> <path class="fil0" d="M8101 4947c-126,-21 -190,11 -373,-112 -34,-23 -68,-43 -104,-70 -34,-27 -58,-45 -90,-72 -78,-64 -228,-165 -336,-165l91 85c68,68 125,180 270,310 90,80 123,93 272,110 57,7 121,20 173,0 32,-13 32,-21 56,-36 46,-29 36,5 40,-48z"/> <path class="fil0" d="M4599 3700c39,47 176,220 212,238 33,-635 169,-579 201,-722 -219,45 -404,264 -413,484z"/> <path class="fil0" d="M5770 4096c68,-19 347,-268 336,-546 -3,-70 -9,-211 -61,-239 -16,31 -17,60 -27,95 -36,125 -93,170 -149,257 -56,87 -102,309 -99,432z"/> <path class="fil0" d="M3999 3961c13,-4 213,-188 210,-269 -8,-201 -164,-434 -376,-462 26,49 59,86 79,146 19,57 41,115 56,175 65,260 17,284 30,409z"/> <path class="fil0" d="M4480 6883c-62,80 -22,70 -80,101 -50,-35 -56,-139 -146,-220 -45,-41 -149,-113 -232,-83l2 70c78,69 199,75 277,244 53,116 21,130 90,140 97,14 99,-50 131,-116 93,-192 186,-199 280,-265l0 -76c-135,-11 -253,116 -322,205z"/> <path class="fil0" d="M4817 2490l-107 88c65,59 108,97 198,125 79,25 240,-1 310,-18 146,-35 319,-158 381,-297 -32,9 -32,25 -57,46 -44,37 -214,92 -282,104 -173,31 -189,2 -338,-25 -34,-6 -64,-22 -105,-22z"/> <path class="fil0" d="M3040 4125c-4,-339 -43,-343 -173,-585 -26,-48 -54,-145 -77,-173 -74,125 -70,313 -11,458 30,73 199,273 261,299z"/> <path class="fil0" d="M2253 4534c28,22 46,50 75,78 194,190 61,740 363,788 -18,-215 -39,-372 -121,-546 -87,-184 -126,-183 -227,-269 -20,-17 -61,-64 -91,-51z"/> <path class="fil0" d="M6516 5954c6,-124 18,-315 132,-391 293,-193 114,-511 109,-619 -86,183 42,128 -195,487 -92,141 -129,338 -46,522z"/> <path class="fil0" d="M1301 2628c19,-11 202,-277 223,-317 48,-93 137,-314 130,-440 -100,48 -208,187 -267,291 -74,130 -108,282 -86,467z"/> <path class="fil0" d="M5842 2204c90,46 142,36 150,176 11,192 -134,294 -284,370 -139,70 -199,62 -236,99 131,3 339,-43 435,-120 126,-101 161,-154 208,-336 24,-92 29,-214 -35,-287 -38,17 -57,41 -111,58 -64,19 -96,-3 -127,41z"/> <path class="fil0" d="M4146 2579c-12,-12 -21,-24 -33,-40 -13,-17 -25,-43 -37,-54 -68,-64 -137,57 -412,-167 -53,-43 -49,-35 -91,-96 -151,-216 -109,-244 -180,-395 -54,154 71,476 179,570 143,124 370,195 574,182z"/> <path class="fil0" d="M7499 2632c14,-93 30,-175 5,-262 -44,-155 -94,-265 -199,-380 -28,-31 -114,-130 -152,-136 4,47 30,166 43,223 54,250 205,342 257,462 14,33 22,67 46,93z"/> <path class="fil0" d="M2000 6285c241,22 722,-133 864,-246 -8,-28 -24,-50 -36,-73 -60,9 -266,111 -434,142 -368,70 -378,29 -394,176z"/> <path class="fil0" d="M1867 6275c25,-30 36,-42 39,-97 -53,-37 -145,-41 -208,-67 -68,-28 -131,-53 -189,-77 -188,-76 -228,-114 -366,-175 -26,12 -23,7 -43,33 -30,40 -15,4 -23,62 259,149 489,247 790,320z"/> <path class="fil0" d="M4610 2364c147,-158 42,-577 -141,-564 -124,9 -71,203 -24,292l87 133c29,43 53,98 77,139z"/> <path class="fil0" d="M793 3470l27 -33c13,-19 14,-24 28,-41 63,-78 263,-259 353,-308 61,-34 125,-61 175,-89 -9,-45 -45,-84 -66,-122 -99,10 -449,270 -487,342 -12,23 -33,212 -30,252z"/> <path class="fil0" d="M3191 4930c-26,13 -116,167 -278,72 -60,-35 -93,-165 -147,-239l-146 -8c-1,70 132,316 239,380 168,101 349,17 332,-205z"/> <path class="fil0" d="M5647 4922c-11,75 -3,121 49,170 56,54 118,48 177,40 102,-14 204,-126 253,-217l112 -208c-19,-15 -37,-40 -73,-20l-75 53c-94,77 -129,239 -265,259 -138,21 -118,-54 -177,-78z"/> <path class="fil0" d="M5568 2010c33,140 106,28 -19,336 65,-37 93,-105 211,-182 101,-65 194,-56 246,-154 8,-75 -176,-91 -229,-100 -59,-10 -81,-22 -121,11 -28,23 -68,54 -88,89z"/> <path class="fil0" d="M1544 5882c115,-16 127,-265 116,-373 -20,-203 -24,-264 6,-469 -3,2 -7,1 -8,5l-128 130c-37,51 -42,156 -31,232 12,77 26,147 42,222 27,127 -4,150 2,253z"/> <path class="fil0" d="M6500 4543c-143,86 -171,122 -258,336 -16,38 -24,70 -41,109 -33,76 -34,171 -56,244 -25,81 -47,188 83,96 101,-71 114,-207 126,-331 12,-132 -2,-160 34,-271 21,-64 68,-178 113,-183z"/> <path class="fil0" d="M6926 6237c115,-2 503,-162 615,-232 37,-23 143,-81 166,-116 -7,-32 -14,-39 -25,-59 -71,5 -139,63 -190,92 -59,34 -126,61 -192,86l-404 138c4,44 9,62 32,92z"/> <path class="fil0" d="M4831 5700l135 -53c-1,-7 2,-13 2,-12l23 -80c10,-28 28,-61 44,-85 188,-281 329,-273 233,-458 -71,47 -202,215 -265,299 -57,76 -172,259 -173,389z"/> <path class="fil0" d="M6154 6104c141,64 478,161 630,151 8,-50 -4,-87 -23,-117 -353,-5 -706,-194 -763,-205l-28 92c26,14 59,29 92,44 34,16 61,21 93,35z"/> <path class="fil0" d="M4310 2580c-52,-59 -177,-278 -203,-362 -33,-104 -38,-284 -16,-398 24,-124 53,-97 -16,-160 -36,30 -111,168 -122,223 -32,156 45,373 132,478 20,25 25,20 45,49 43,63 119,128 181,170z"/> <path class="fil0" d="M5264 2774c48,28 193,1 246,-14 175,-48 238,-112 335,-244 25,-34 36,-39 46,-93 12,-68 5,-82 -35,-108 -115,-74 -98,-82 -129,61 -68,318 -382,350 -463,398z"/> <path class="fil0" d="M5640 1278c18,78 80,117 72,292 -5,125 -32,180 -91,276 92,-32 195,-171 230,-261 40,-102 41,-354 -50,-404 -62,32 -29,63 -162,97z"/> <path class="fil0" d="M3526 5171l239 264c39,49 57,115 85,170 29,56 87,100 137,114 17,-180 -207,-432 -308,-548 -35,-40 -105,-130 -137,-156 -19,42 -22,100 -16,155z"/> <path class="fil0" d="M7244 5847c-1,-42 -18,-70 -21,-108 -6,-88 64,-252 83,-357 30,-165 -50,-328 -166,-392 15,58 35,146 37,215 4,164 -56,252 -11,471 38,182 60,112 77,170z"/> <path class="fil0" d="M7451 2958c108,44 221,113 304,180 167,134 159,173 216,236 15,16 2,5 21,17 -7,-76 -38,-138 -64,-196 -68,-152 -304,-351 -412,-382 -26,36 -66,86 -66,145z"/> <path class="fil0" d="M708 5128c12,155 172,198 318,176 161,-24 248,-99 245,-261 -146,15 -286,182 -442,155 -71,-12 -68,-58 -122,-71z"/> <path class="fil0" d="M5369 8162c140,27 257,-58 396,-123 58,-27 82,-31 108,-67 -100,-21 -179,-15 -271,6 -97,22 -176,-2 -260,27l28 156z"/> <path class="fil0" d="M3279 1993c10,-219 24,-420 190,-565 25,-22 44,-15 40,-57 -133,-10 -243,96 -293,208 -45,100 1,371 62,414z"/> <path class="fil0" d="M4411 6803c41,-23 60,-67 95,-102 245,-253 176,-163 114,-336 -43,21 -138,145 -170,186 -15,19 4,-2 -17,19 -37,38 -85,70 -101,131l79 102z"/> <path class="fil0" d="M3242 8134c88,22 180,69 161,-125 -125,-6 -477,-68 -557,-13 86,66 280,109 396,138z"/> <path class="fil0" d="M4940 2189c25,-5 71,-56 96,-76 110,-89 115,-37 170,-119 22,-34 24,-17 43,-59 20,-47 29,-115 -4,-148 -22,-21 -110,-52 -149,-19 -22,19 -26,106 -39,155 -31,114 -72,175 -115,266z"/> <path class="fil0" d="M8066 5097c-66,31 -89,169 -407,-21 -34,-20 -89,-55 -131,-61 -103,160 341,299 452,235 54,-31 90,-85 86,-154z"/> <path class="fil0" d="M5278 1250c45,27 163,12 230,187 51,132 -65,205 36,344 2,-24 133,-178 52,-389 -39,-101 -110,-167 -223,-165 -66,1 -68,26 -95,24z"/> <path class="fil0" d="M4532 1709c45,38 66,40 103,91 29,40 40,77 78,118 0,0 12,-3 23,-46 12,-46 4,-156 -2,-198 -12,-78 -48,-158 -125,-157 -48,49 -84,88 -76,191z"/> <path class="fil0" d="M6004 4004c97,7 162,1 247,21 79,18 134,47 201,64l54 -82c-101,-87 -259,-112 -437,-102l-65 100z"/> <path class="fil0" d="M5688 5230c17,105 89,222 214,197 20,-4 111,-68 121,-81 31,-40 44,-113 40,-171 -40,19 -109,81 -156,92 -106,24 -177,-27 -218,-37z"/> <path class="fil0" d="M2312 4025c11,38 29,49 48,78 102,-7 67,-74 426,-93 -13,-46 -51,-79 -78,-106 -114,-8 -355,56 -396,121z"/> <path class="fil0" d="M3132 5244c-80,2 -162,102 -304,15 -28,-17 -48,-37 -77,-45 -2,150 216,312 328,189 29,-32 58,-104 53,-160z"/> <path class="fil0" d="M4872 2400c33,10 74,53 211,54 168,2 301,-33 399,-172 44,-62 70,-142 19,-212 -57,127 -84,183 -226,273 -160,101 -215,86 -404,58z"/> <path class="fil0" d="M1993 2331c167,-110 411,-290 395,-513 -47,21 -69,71 -101,118 -193,280 -293,242 -294,395z"/> <path class="fil0" d="M3642 1552l116 -58c136,-69 93,-23 221,-148 41,-40 45,-44 99,-78 -62,-57 -244,32 -283,58 -68,46 -125,128 -153,225z"/> <path class="fil0" d="M911 5758l76 -66c-12,-43 -125,-250 -151,-283l-105 -5c-6,107 113,321 180,354z"/> <path class="fil0" d="M2617 5669c3,88 101,175 185,191 122,22 211,-60 216,-166 -48,15 -32,29 -72,52 -101,56 -182,-37 -250,-105 -37,2 -57,14 -79,28z"/> <path class="fil0" d="M3876 1903c62,-192 -6,-64 111,-236 24,-35 52,-62 49,-120 -3,-50 -101,-200 -181,115 -17,69 -22,198 21,242z"/> <path class="fil0" d="M3885 8089c41,68 139,54 236,40 84,-12 84,-104 77,-211 -23,3 -283,122 -313,170z"/> <path class="fil0" d="M3546 5425c-60,-10 -49,-28 -87,-62 -131,61 -67,204 12,273 22,19 152,32 136,-44 -14,-66 -66,-84 -61,-167z"/> <path class="fil0" d="M4881 8089c-47,-39 -104,-45 -167,-83 -28,-16 -54,-29 -82,-46 -21,-13 -26,-23 -39,-31 -15,-10 -2,-4 -19,-8l-13 4c-12,31 -10,103 -1,144 17,76 165,77 232,72 62,-5 75,-1 90,-53z"/> <path class="fil0" d="M6729 2126c20,37 3,22 35,46 -2,2 -7,1 -8,4 -2,7 -12,-1 -19,14 -15,28 -9,1 5,27 13,-15 22,-28 34,-45l-188 -206c-60,-70 -66,-138 -189,-204 -1,56 13,86 29,135 23,72 98,176 165,203 63,26 58,47 137,26z"/> <path class="fil0" d="M4115 1570c17,21 31,33 43,59 15,35 2,40 33,71 245,-196 155,-356 12,-257 -31,21 -78,81 -88,126z"/> <path class="fil0" d="M7201 3179c21,29 -2,18 38,26 217,41 256,-48 533,207 82,75 99,122 140,141 29,-28 35,-29 -12,-84 -25,-29 -40,-43 -67,-72 -131,-138 -288,-219 -488,-228l-105 -8c-65,8 -16,0 -38,17z"/> <path class="fil0" d="M4194 6433c18,30 80,119 113,137 24,-27 24,-37 43,-60 13,-17 31,-31 51,-50 -3,-61 -24,-81 -54,-125 -50,-73 -23,-74 -74,-101 -23,39 -21,67 -39,102 -21,40 -33,39 -40,97z"/> <path class="fil0" d="M5069 4317c98,-75 127,-198 154,-312 11,-46 27,-80 33,-129 -49,18 -138,126 -157,172 -60,145 -43,100 -29,269z"/> <path class="fil0" d="M5198 5589l166 13c53,-109 112,-118 9,-251 -67,21 -171,151 -175,238z"/> <path class="fil0" d="M3738 4323c78,-151 -85,-373 -182,-421 0,85 74,255 110,336 26,57 30,50 72,85z"/> <path class="fil0" d="M7808 5634c23,27 44,52 80,66 34,-28 146,-261 154,-323l-94 6c-16,19 -20,26 -37,52 -8,12 -9,14 -17,28 -39,67 -83,111 -85,170z"/> <path class="fil0" d="M886 3598c87,-14 49,-55 131,-127 104,-91 178,-149 332,-190 56,-15 178,-22 205,-55 -61,-68 -344,53 -404,88 -71,40 -96,70 -148,119 -26,24 -41,38 -67,72 -28,37 -46,45 -49,94z"/> <path class="fil0" d="M3028 2971c-26,-32 -123,-126 -179,-138 -10,167 -71,235 -8,259 47,18 174,-98 187,-121z"/> <path class="fil0" d="M7654 5423c-7,91 5,212 49,262 28,-23 22,-15 37,-58 19,-51 17,-34 43,-75 31,-51 46,-105 13,-171 -61,10 -1,14 -70,26 -48,8 -26,-6 -72,15z"/> <path class="fil0" d="M5823 5724l60 89c117,6 131,12 208,-42 39,-27 103,-79 111,-130l-104 -11c-47,67 -75,128 -216,101 -34,-6 -36,-24 -59,-7z"/> <path class="fil0" d="M5146 4381c19,-36 43,-70 71,-106l85 -112c69,-99 97,-124 87,-293 -104,35 -141,292 -185,379 -21,41 -56,83 -59,132z"/> <path class="fil0" d="M686 4388c19,-33 38,-277 56,-350 19,-80 90,-240 97,-302 -51,-2 -53,-6 -87,114 -34,121 -125,445 -66,537z"/> <path class="fil0" d="M1305 5701c7,-51 1,-87 14,-135 37,-142 33,-122 -21,-184 -129,125 -104,316 7,319z"/> <path class="fil0" d="M5841 2971c22,39 79,82 124,104 44,-32 46,-49 29,-110 -19,-68 -17,-81 -17,-158 -70,18 -130,113 -136,164z"/> <path class="fil0" d="M5159 1277c4,-103 -44,-114 -119,-147 -71,-31 -132,-68 -135,-157 -14,34 -43,49 -25,97 38,104 82,102 166,155 29,18 75,49 114,52z"/> <path class="fil0" d="M8108 4346l26 2c29,-103 -68,-640 -143,-681 -23,51 62,236 78,306 14,62 28,354 39,373z"/> <path class="fil0" d="M1744 3214c12,9 4,9 25,14 43,10 244,-15 277,-24 38,-10 77,-30 119,-46 53,-21 88,-33 106,-76 -96,2 -224,86 -468,107 -80,7 -47,5 -58,25z"/> <path class="fil0" d="M3670 4388c15,-38 -80,-101 -119,-248 -28,-109 -59,-206 -134,-252 -10,209 98,283 175,389 31,43 47,72 78,111z"/> <path class="fil0" d="M3485 1802c49,-124 86,-146 93,-325 -105,29 -194,213 -93,325z"/> <path class="fil0" d="M1047 5472c-11,79 4,230 38,275 15,-21 59,-103 69,-135 12,-34 -6,-72 -18,-122 -1,-4 -3,-15 -5,-18 -17,-53 -59,-25 -85,0z"/> <path class="fil0" d="M6513 3032c9,24 7,20 36,38 116,71 371,133 510,115 -8,-57 -145,-40 -284,-72 -108,-25 -241,-109 -261,-81z"/> <path class="fil0" d="M2041 5894c-48,-11 -46,19 -98,16 -35,-2 -48,-25 -95,-35 23,193 212,215 211,71 0,-13 0,-18 -4,-30 -6,-17 -9,-15 -14,-22z"/> <path class="fil0" d="M7434 5449c56,113 76,5 72,183 79,-24 107,-197 0,-288 -36,18 -61,59 -72,105z"/> <path class="fil0" d="M2386 2969c119,12 217,-347 207,-485 -80,74 -15,153 -174,430 -21,36 -20,15 -33,54z"/> <path class="fil0" d="M6370 5805c42,-60 38,-145 37,-240 -59,12 -109,72 -120,110 -19,62 35,117 83,131z"/> <path class="fil0" d="M2040 2107c44,-18 249,-293 250,-371 -10,7 -304,296 -250,371z"/> <path class="fil0" d="M4513 1186c-1,3 -3,4 -4,8 -1,10 -26,32 46,128 16,21 84,77 115,79 -5,-93 -58,-260 -157,-216z"/> <path class="fil0" d="M5439 1567c19,-46 2,-109 -20,-154 -20,-39 -80,-68 -138,-75 9,48 82,229 158,229z"/> <path class="fil0" d="M6410 2954c-11,-63 -38,-84 -63,-124 -101,-159 -97,-349 -140,-387 -15,35 27,237 45,286 23,62 98,197 158,224z"/> <path class="fil0" d="M6781 2083c5,-63 -78,-168 -120,-214l-156 -190c4,83 137,248 194,315l82 88z"/> <path class="fil0" d="M6776 5843c-51,101 25,203 135,89 31,-33 33,-35 25,-96 -86,55 -79,41 -160,7z"/> <path class="fil0" d="M699 4905l62 0c28,-99 -5,-135 -52,-181 -31,-29 -12,-26 -53,-41 -7,118 4,140 43,221z"/> <path class="fil0" d="M2792 5646c69,79 201,-7 156,-115l-81 -5c-26,49 -68,79 -75,119z"/> <path class="fil0" d="M2420 5820l73 -8c15,-42 27,-88 -2,-136 -18,-29 -63,-72 -94,-83l23 227z"/> <path class="fil0" d="M5854 5530c3,138 114,126 158,81 -10,-43 -9,-22 -35,-59 -8,-12 -10,-16 -16,-29 -1,-3 -5,-13 -6,-16 -11,-23 -4,-11 -14,-23 -51,12 -61,20 -87,47z"/> <path class="fil0" d="M1401 5686c44,13 45,11 96,12 -6,-90 -9,-169 -100,-185 -9,74 -19,109 5,173z"/> <path class="fil0" d="M7035 5858c4,109 126,122 178,43l-70 -75c-50,0 -78,16 -108,32z"/> <path class="fil0" d="M8096 4882c15,-59 26,-134 21,-205 -57,13 -76,38 -88,99 -15,80 -35,112 67,105z"/> <path class="fil0" d="M4102 1428c170,-127 190,-60 204,-147 -71,-38 -197,2 -204,147z"/> <path class="fil0" d="M1602 5958c101,78 189,-2 172,-75l-121 -2c-16,23 -40,55 -51,77z"/> <path class="fil0" d="M2395 5912c-1,3 -1,5 -2,10 -1,4 -2,7 -3,8l-11 12c12,137 170,92 148,-35 -33,-18 11,6 -133,5z"/> <path class="fil0" d="M6331 1454c24,25 47,45 95,56 -2,-116 -10,-52 -20,-103 -8,-43 -2,-74 -16,-111 -78,5 -58,85 -59,158z"/> <path class="fil0" d="M3910 1180l142 1c42,-61 96,-63 166,-98 -93,-77 -266,91 -308,97z"/> <path class="fil0" d="M2348 1549c43,-14 66,-31 84,-60 18,-52 17,-133 -25,-158 -48,42 -56,131 -58,218z"/> <path class="fil0" d="M5485 1188c86,-2 204,-17 232,-81 -35,-32 -85,-20 -128,-4 -54,20 -85,41 -104,85z"/> <path class="fil0" d="M7317 5638c0,0 4,28 54,0 32,-18 62,-99 25,-159 -28,4 -54,26 -66,47 -21,36 -31,77 -13,112z"/> <path class="fil0" d="M7726 5359c15,-16 24,-15 28,-43 -29,-15 -85,-18 -131,-38 -22,-10 -39,-17 -56,-27 -27,-17 -22,-21 -61,-32 -25,93 204,140 220,141z"/> <path class="fil0" d="M1966 5708c26,-16 60,-39 49,-90 -4,-16 -14,-38 -24,-57 -18,-35 -14,-32 -51,-44 -28,68 -28,148 26,190z"/> <path class="fil0" d="M1444 5893c48,-28 46,-50 44,-123 -33,-15 -64,-31 -102,-33 -6,67 -4,135 58,156z"/> <path class="fil0" d="M7497 5738c11,38 35,57 78,65 54,-39 74,-94 23,-154 -20,12 -89,73 -101,89z"/> <path class="fil0" d="M7316 5732c0,10 -2,44 -1,53 11,85 116,61 109,-107 -57,4 -56,31 -108,54z"/> <path class="fil0" d="M6770 5599c35,83 76,53 116,0l-41 -116c-44,31 -59,55 -75,116z"/> <path class="fil0" d="M6309 5960c31,13 41,21 84,19 39,-30 48,-41 33,-102l-126 0 9 83z"/> <path class="fil0" d="M5000 4583l53 3c32,-32 78,-158 8,-188 -26,20 -52,144 -61,185z"/> <path class="fil0" d="M5024 1618c32,-19 48,-45 71,-83 -19,-42 -56,-113 -110,-113l40 196z"/> <path class="fil0" d="M1056 5356c43,22 275,25 234,-101 -28,3 -84,54 -170,82 -26,8 -42,8 -65,19z"/> <path class="fil0" d="M1259 5837c34,-16 40,-15 55,-52 -18,-34 -70,-73 -113,-87 -28,54 -6,113 58,139z"/> <path class="fil0" d="M6625 5862c53,-6 63,-37 75,-89l-49 -64c-32,48 -86,104 -26,153z"/> <path class="fil0" d="M4372 1315c51,39 39,37 75,89l43 -41c-19,-55 -43,-115 -117,-99l-1 51z"/> <path class="fil0" d="M1725 5826c32,1 42,-2 60,-14 0,-36 -50,-116 -74,-128 -46,69 -31,100 15,141z"/> <path class="fil0" d="M3790 4596c7,-49 -5,-148 -39,-179 -21,12 -20,-9 -28,39 -9,50 7,133 67,140z"/> <path class="fil0" d="M2097 5831c29,31 47,52 110,44 3,-53 -34,-103 -67,-120 -19,19 -37,44 -43,76z"/> <path class="fil0" d="M2204 6012l12 -59 -97 -19c-9,89 16,112 85,79z"/> <path class="fil0" d="M6145 5854c49,31 86,-6 115,-35l-20 -66c-22,12 -81,83 -95,101z"/> <path class="fil0" d="M7036 5761c41,32 134,35 71,-97l-71 97z"/> <path class="fil0" d="M5091 4772l13 -176c-45,55 -101,117 -13,176z"/> <path class="fil0" d="M6597 5963c19,12 34,18 66,19l29 -72c-66,-8 -107,-17 -95,53z"/> <path class="fil0" d="M2672 5887c-18,-32 -23,-29 -46,-56 -30,-34 -20,-43 -57,-56 -30,64 36,112 103,112z"/> <path class="fil0" d="M3731 4773c28,-15 88,-103 8,-127 -5,9 -11,-8 -11,61 0,21 2,45 3,66z"/> <path class="fil0" d="M4159 1188c9,5 -10,15 34,2 126,-36 44,-13 180,-20 -70,-41 -150,-22 -214,17z"/> <path class="fil0" d="M2372 1717c38,-14 23,-13 38,-62 6,-21 17,-47 24,-65 -47,1 -78,79 -61,128z"/> <path class="fil0" d="M6446 1682c-12,-46 -37,-73 -62,-98 3,61 2,96 62,98z"/> <path class="fil0" d="M5161 4726c17,-38 24,-93 -8,-120 -14,34 -3,85 8,120z"/> <path class="fil0" d="M4415 1728l51 -20 3 -58c-27,17 -50,37 -55,77z"/> <path class="fil0" d="M3675 4761l3 -143c-37,52 -25,91 -3,143z"/> <path class="fil0" d="M3455 3777c-24,-55 -2,-34 -41,-72 -18,40 11,42 41,72z"/> </g> </g> </svg>